<?xml version="1.0" encoding="utf-8"?>
<!-- Generator: Adobe Illustrator 27.5.0, SVG Export Plug-In . SVG Version: 6.00 Build 0)  -->
<svg version="1.1" id="Capa_1" xmlns="http://www.w3.org/2000/svg" xmlns:xlink="http://www.w3.org/1999/xlink" x="0px" y="0px"
	 viewBox="0 0 2396 1879" style="enable-background:new 0 0 2396 1879;" xml:space="preserve">
<path style="fill:#474A7C;" d="M2266.48,917.496c0-462.281-341.336-551.074-420.789-547.887l-127.617,1.414
	c-31.195-2.582-62.641-0.594-93.469,6.414c-49.559,11.277-96.461,34.602-138.664,66.895c-0.348,0.266-0.691,0.539-1.035,0.805
	c-2.699,2.074-5.379,4.176-8.035,6.324c-1.066,0.863-2.117,1.746-3.18,2.621c-1.926,1.586-3.848,3.172-5.75,4.797
	c-1.719,1.461-3.414,2.957-5.109,4.449c-1.23,1.082-2.469,2.156-3.691,3.254c-2.293,2.07-4.574,4.172-6.836,6.297
	c-0.602,0.563-1.207,1.113-1.809,1.68c-2.824,2.672-5.613,5.387-8.379,8.141c-0.039,0.043-0.086,0.078-0.121,0.117
	c-41.508,41.34-76.707,91.844-102.988,147.766c-29.445,62.656-48.348,131.309-57.523,202.055l-164.539,0.027
	c-38.84-388.504-342.356-466.035-416.688-463.055l-127.617,1.414c-31.195-2.582-62.641-0.594-93.465,6.414
	c-49.559,11.277-96.461,34.602-138.672,66.895c-0.344,0.266-0.684,0.539-1.027,0.805c-2.695,2.074-5.383,4.176-8.039,6.324
	c-1.063,0.859-2.109,1.742-3.168,2.617c-1.93,1.586-3.855,3.172-5.762,4.801c-1.715,1.461-3.41,2.957-5.105,4.449
	c-1.23,1.082-2.469,2.156-3.691,3.254c-2.297,2.066-4.57,4.168-6.832,6.289c-0.605,0.566-1.215,1.121-1.816,1.691
	c-2.816,2.672-5.609,5.383-8.375,8.133c-0.039,0.043-0.082,0.082-0.125,0.125c-41.512,41.336-76.703,91.84-102.98,147.762
	C149.934,723.457,129.469,829.496,129.469,936c0,0.539,0,1.07,0,1.606c0,2.715,0.031,5.43,0.063,8.144
	c0.016,1.633,0.031,3.266,0.059,4.895c0.027,1.594,0.07,3.195,0.105,4.793c0.063,2.762,0.133,5.523,0.219,8.285
	c0.016,0.449,0.035,0.898,0.051,1.352c0.359,10.656,0.906,21.305,1.672,31.938c6.141,85.566,25.238,169.867,55.902,246.246
	c29.961,74.609,74.262,142.594,130.953,190.637c0.379,0.324,0.762,0.641,1.137,0.953c1.461,1.23,2.922,2.453,4.402,3.652
	c1.801,1.469,3.609,2.922,5.438,4.348c0.055,0.043,0.109,0.09,0.16,0.129c9.602,7.527,19.519,14.504,29.777,20.836
	c50.961,31.484,108.375,45.855,165.91,44.777v0.008l180.113-1.07l-0.004-0.477c49.566-2.984,347-103.852,405.594-461.621h170.926
	c8.914,68.785,26.164,135.91,51.027,197.828c29.957,74.609,74.262,142.594,130.957,190.637c0.371,0.324,0.754,0.641,1.133,0.953
	c1.457,1.23,2.922,2.453,4.395,3.652c1.809,1.469,3.617,2.922,5.445,4.348c0.055,0.043,0.102,0.09,0.16,0.129
	c9.602,7.527,19.523,14.504,29.773,20.836c50.961,31.484,108.379,45.855,165.91,44.777v0.008l180.113-1.07v-0.477
	C1905.891,1503.738,2266.48,1379.781,2266.48,917.496z"/>
<path style="fill:#585C86;" d="M2266.48,917.496c0-462.281-341.336-551.074-420.789-547.887l-127.617,1.414
	c67.137,5.559,133.102,32.324,189.121,76.066c86.727,67.723,135.844,176.824,160.496,293.684
	c28.18,133.566,28.93,276.774-8.535,407.145c-37.465,130.379-114.887,246.691-218.902,309.926
	c-104.02,63.238-234.426,69.016-337.793,4.332c-9.418-5.891-18.547-12.305-27.398-19.199c9.602,7.527,19.523,14.504,29.773,20.836
	c50.961,31.484,108.379,45.855,165.91,44.777v0.008l180.113-1.07v-0.477C1905.891,1503.738,2266.48,1379.781,2266.48,917.496z"/>
<path style="fill:#585C86;" d="M1384.688,1185.461c3.512,6.641,7.254,13.16,11.203,19.555c2.836,4.586,10.098,0.375,7.25-4.234
	c-29.074-47.074-45.594-100.879-54.199-155.352h-8.441C1348.063,1094.047,1361.664,1141.918,1384.688,1185.461z"/>
<path style="fill:#585C86;" d="M1398.945,667.523c24.605-50.734,58.164-97.148,100.75-134.309
	c39.188-34.195,86.188-60.262,137.41-70.734c6.133-1.254,12.301-2.289,18.508-3.07c5.281-0.664,5.355-9.066,0-8.391
	c-52.902,6.656-102.254,29.449-144.285,61.863c-44.887,34.609-81.457,79.418-108.613,129.039
	c-29.773,54.387-49.008,114.246-59.648,175.215c-0.898,5.156-1.719,10.32-2.504,15.492h8.43
	C1357.742,775.637,1373.758,719.461,1398.945,667.523z"/>
<path style="fill:#3C4176;" d="M1512.59,1396.742c8.512,5.582,17.77,10.199,26.953,14.547c22.82,10.793,46.813,19.211,71.426,24.848
	c32.848,7.516,66.941,10.117,100.477,6.332c40.902-4.617,80.199-18.535,115.145-40.266c45.922-28.551,83.406-69.004,113.746-113.41
	c30.691-44.93,53.684-94.926,68.883-147.137c13.852-47.57,21.301-96.93,23.551-146.391c1.953-43.102-0.043-86.367-5.348-129.176
	c-4.027-32.469-9.855-64.723-17.688-96.492c-3.863-15.672-8.109-31.305-13.309-46.59c-0.234-0.668-0.465-1.34-0.699-2.004
	c-1.813-5.047-9.93-2.871-8.09,2.23c3.715,10.34,6.707,20.977,9.59,31.57c7.547,27.691,13.457,55.832,17.957,84.168
	c6.316,39.754,9.73,80,9.914,120.258c0.227,47.414-4.098,94.906-14.125,141.281c-11.055,51.141-29.055,100.746-54.602,146.453
	c-27.008,48.305-62.012,93.344-105.5,127.906c-33.469,26.602-72.445,46.066-114.316,55.074c-33.602,7.223-68.57,7.605-102.469,2.16
	c-14.551-2.332-28.938-5.688-43.047-9.941c-6.219-1.871-12.383-3.926-18.484-6.141c-2.93-1.063-5.844-2.168-8.746-3.309
	c-1.242-0.488-2.484-0.992-3.73-1.496c-0.672-0.27-1.34-0.551-2.012-0.824c-0.281-0.117-1.234-0.52-1.406-0.586
	c-13.094-5.523-26.039-11.773-38.148-19.254c-0.563-0.348-1.129-0.699-1.684-1.063
	C1512.297,1386.523,1508.09,1393.785,1512.59,1396.742z"/>
<path style="fill:#6D6F9A;" d="M2159.879,606.289c12.992,23.359,24.098,47.742,33.441,72.777
	c9.277,24.855,16.871,50.332,22.945,76.152c5.906,25.102,10.402,50.543,13.488,76.141c2.938,24.379,4.668,48.914,5.152,73.469
	c0.449,22.617-0.145,45.266-1.938,67.816c-1.59,19.93-4.039,39.277-7.863,58.891c-0.836,4.277-1.734,8.535-2.703,12.789
	c-1.195,5.254,6.895,7.5,8.094,2.227c4.348-19.121,7.32-38.547,9.391-58.035c2.359-22.199,3.469-44.527,3.547-66.848
	c0.09-24.379-1.063-48.766-3.41-73.031c-2.512-25.945-6.344-51.781-11.617-77.313c-5.41-26.199-12.328-52.094-20.922-77.43
	c-8.715-25.715-19.145-50.887-31.453-75.09c-12.398-24.402-26.746-47.824-43.145-69.742c-16.723-22.344-35.453-43.152-56.246-61.781
	c-21.453-19.219-44.965-36.152-70.043-50.32c-27.035-15.273-55.859-27.367-85.566-36.352c-7.723-2.332-15.496-4.449-23.328-6.379
	c-5.242-1.293-7.477,6.797-2.227,8.094c30.293,7.473,59.848,17.914,87.813,31.781c25.84,12.813,50.344,28.406,72.734,46.586
	c21.426,17.391,40.98,37.031,58.465,58.371C2131.645,560.008,2146.723,582.637,2159.879,606.289z"/>
<path style="fill:#3B426E;" d="M1712.348,901.914c-4.816-21.855-14.406-42.266-31.34-54.934
	c-12.926-9.664-28.555-14.899-44.07-14.395l-287.945,0.043h-8.43l-58.98,0.008h-0.098l-164.539,0.027
	c2.676,26.777,4.102,55.023,4.102,84.832c0,45.914-3.563,88.48-10.027,127.934h170.926h58.555h8.441l287.996,0.008v-0.09
	c10.746-0.555,21.445-3.742,30.996-9.305c20.313-11.828,35.434-33.586,42.746-57.973
	C1717.992,953.684,1717.852,926.898,1712.348,901.914z"/>
<path style="fill:#585C86;" d="M1116.945,832.664c-38.84-388.504-342.356-466.035-416.688-463.055l-127.617,1.414
	c67.141,5.559,133.106,32.324,189.125,76.066c86.727,67.723,135.84,176.824,160.492,293.684
	c28.18,133.566,28.93,276.774-8.531,407.145c-37.465,130.379-114.887,246.691-218.906,309.926
	c-104.016,63.238-234.422,69.016-337.797,4.332c-9.41-5.891-18.543-12.305-27.394-19.199c9.602,7.527,19.519,14.504,29.777,20.836
	c50.961,31.484,108.375,45.855,165.91,44.777v0.008l180.113-1.07l-0.004-0.477c49.566-2.984,347-103.852,405.594-461.621
	c6.465-39.453,10.027-82.019,10.027-127.934C1121.047,887.688,1119.621,859.441,1116.945,832.664z"/>
<path style="fill:#585C86;" d="M510.184,459.41c5.285-0.664,5.348-9.066,0-8.391c-52.91,6.656-102.254,29.449-144.289,61.863
	c-44.883,34.609-81.453,79.418-108.613,129.039c-29.773,54.387-49.004,114.246-59.645,175.215
	c-10.898,62.422-13.313,126.512-7.387,189.598c5.793,61.672,19.891,123.652,49.008,178.727c3.512,6.641,7.254,13.16,11.203,19.555
	c2.832,4.586,10.098,0.375,7.246-4.234c-32.113-51.992-48.938-112.203-56.668-172.441c-7.875-61.395-7.449-124.305,1.035-185.605
	c8.367-60.445,24.77-120.207,51.441-175.211c24.598-50.734,58.164-97.148,100.75-134.309c39.188-34.195,86.188-60.262,137.41-70.734
	C497.805,461.227,503.973,460.191,510.184,459.41z"/>
<path style="fill:#3C4176;" d="M488.656,1432.105c-14.551-2.332-28.938-5.688-43.047-9.941c-6.219-1.871-12.383-3.926-18.488-6.141
	c-2.926-1.063-5.844-2.168-8.738-3.309c-1.25-0.488-2.492-0.992-3.734-1.496c-0.672-0.27-1.344-0.551-2.016-0.824
	c-0.281-0.117-1.242-0.52-1.402-0.586c-13.098-5.531-26.039-11.773-38.148-19.254c-0.563-0.348-1.133-0.699-1.688-1.063
	c-4.527-2.969-8.738,4.293-4.238,7.25c8.516,5.582,17.77,10.199,26.953,14.547c22.82,10.793,46.813,19.211,71.426,24.848
	c32.848,7.516,66.945,10.117,100.476,6.332c40.906-4.617,80.203-18.535,115.148-40.266c45.918-28.551,83.402-69.004,113.742-113.41
	c30.699-44.93,53.688-94.926,68.887-147.137c13.848-47.57,21.301-96.93,23.551-146.391c1.957-43.102-0.043-86.367-5.352-129.176
	c-4.027-32.469-9.856-64.723-17.688-96.492c-3.863-15.672-8.106-31.305-13.313-46.59c-0.227-0.668-0.457-1.34-0.695-2.004
	c-1.813-5.047-9.922-2.871-8.09,2.23c3.715,10.34,6.711,20.977,9.594,31.57c7.543,27.691,13.449,55.832,17.953,84.168
	c6.32,39.754,9.73,80,9.922,120.258c0.219,47.414-4.105,94.906-14.129,141.281c-11.055,51.141-29.055,100.746-54.609,146.453
	c-27.004,48.305-62.012,93.344-105.492,127.906c-33.469,26.602-72.445,46.066-114.32,55.074
	C557.523,1437.168,522.551,1437.551,488.656,1432.105z"/>
<path style="fill:#6D6F9A;" d="M1094.227,989.84c2.301-21.938,3.359-44.008,3.41-66.066c0.055-24.273-1.125-48.547-3.477-72.707
	c-2.523-25.961-6.367-51.809-11.621-77.356c-5.406-26.297-12.316-52.293-20.879-77.734c-8.707-25.867-19.117-51.191-31.395-75.57
	c-12.375-24.566-26.695-48.172-43.074-70.285c-16.613-22.414-35.238-43.324-55.922-62.059
	c-21.484-19.465-45.082-36.621-70.281-50.961c-27.012-15.371-55.848-27.539-85.586-36.539c-7.652-2.316-15.367-4.418-23.129-6.332
	c-5.246-1.293-7.48,6.797-2.234,8.094c30.316,7.477,59.871,17.973,87.813,31.934c25.852,12.918,50.328,28.648,72.68,46.977
	c21.414,17.559,40.941,37.383,58.379,58.891c17.063,21.047,32.047,43.769,45.125,67.481c13.035,23.633,24.164,48.285,33.527,73.594
	c9.242,24.984,16.816,50.578,22.879,76.512c5.855,25.031,10.336,50.395,13.426,75.918c2.957,24.414,4.711,48.977,5.223,73.566
	c0.465,22.395-0.086,44.82-1.836,67.156c-1.535,19.508-3.879,38.266-7.625,57.441c-0.82,4.188-1.703,8.367-2.656,12.531
	c-1.207,5.254,6.883,7.496,8.09,2.227C1089.344,1027.875,1092.227,1008.887,1094.227,989.84z"/>
<path style="fill:#474A7C;" d="M1312.121,867.387c23.988,0.137,47.977,0.273,71.961,0.414l72.637,0.418l67.734,0.391l57.246,0.328
	c13.723,0.078,27.449,0.156,41.172,0.238c6.5,0.035,13.016,0.223,19.512,0.109c0.281-0.004,0.559,0.004,0.84,0.004
	c5.402,0.031,5.406-8.359,0-8.391c-4.457-0.027-8.918-0.051-13.375-0.078c-12.133-0.07-24.262-0.141-36.395-0.207
	c-17.945-0.105-35.891-0.207-53.832-0.309c-21.898-0.125-43.793-0.254-65.688-0.379c-23.988-0.137-47.973-0.277-71.961-0.414
	c-24.211-0.141-48.426-0.277-72.637-0.418l-67.734-0.391l-57.242-0.328c-13.727-0.078-27.449-0.156-41.172-0.234
	c-6.5-0.039-13.02-0.223-19.516-0.113c-0.277,0.004-0.559-0.004-0.84-0.008c-5.402-0.027-5.406,8.367,0,8.395
	c4.457,0.027,8.918,0.055,13.375,0.078c12.129,0.07,24.262,0.141,36.395,0.207c17.945,0.105,35.891,0.207,53.832,0.309
	C1268.332,867.137,1290.227,867.262,1312.121,867.387z"/>
<path style="fill:#313764;" d="M1645.84,1017.844c-0.656,0.227-1.309,0.434-1.977,0.617c-0.148,0.039-0.406,0.07-0.641,0.117
	c-1.301-0.156-2.793,0.047-4.066,0.059c-3.074,0.016-6.145,0.031-9.215,0.051c-10.008,0.055-20.02,0.094-30.027,0.133
	c-28.504,0.098-57.008,0.129-85.508,0.035c-27.555-0.082-55.109-0.203-82.652-0.867c-2.52-0.063-5.039-0.129-7.563-0.203
	c-5.402-0.168-5.398,8.227,0,8.391c26.813,0.805,53.652,0.926,80.473,1.039c29.684,0.129,59.371,0.105,89.055,0.016
	c16.363-0.055,32.773,0.16,49.141-0.23c2.199-0.047,4.188-0.664,6.25-1.434c6.355-2.375,12.105-5.879,17.371-10.148
	c20.852-16.91,29.605-44.344,32.578-70.094c0.578-4.984,0.93-9.988,1.121-15c0.215-5.398-8.184-5.391-8.391,0
	c-1.059,27.008-7.352,56.805-27.48,75.859c-3.246,3.078-5.07,4.508-8.699,6.813c-2.406,1.523-4.914,2.836-7.512,3.988
	c-0.227,0.102-0.559,0.234-0.793,0.328C1646.82,1017.496,1646.332,1017.68,1645.84,1017.844z"/>
</svg>
